{"asset":{"version":"2.0","generator":"3D Showcase minimal demo asset"},"extensionsUsed":["KHR_materials_unlit"],"scene":0,"scenes":[{"nodes":[0]}],"nodes":[{"name":"world","children":[1,2,3,4,5,6,7,8,9,10,11]},{"name":"body","mesh":0,"translation":[0,0.8,0],"scale":[4.2,0.65,1.8]},{"name":"cabin","mesh":0,"translation":[-0.2,1.35,0],"scale":[2.2,0.7,1.55]},{"name":"front-light","mesh":0,"translation":[2.12,0.9,0],"scale":[0.1,0.2,1.4]},{"name":"rear-light","mesh":0,"translation":[-2.12,0.88,0],"scale":[0.1,0.18,1.3]},{"name":"wheel-1","mesh":0,"translation":[-1.4,0.48,0.94],"scale":[0.55,0.55,0.25]},{"name":"wheel-2","mesh":0,"translation":[1.4,0.48,0.94],"scale":[0.55,0.55,0.25]},{"name":"wheel-3","mesh":0,"translation":[-1.4,0.48,-0.94],"scale":[0.55,0.55,0.25]},{"name":"wheel-4","mesh":0,"translation":[1.4,0.48,-0.94],"scale":[0.55,0.55,0.25]},{"name":"anchor:front-light","translation":[2.15,1.0,0.65]},{"name":"anchor:cabin","translation":[0,1.6,0]},{"name":"anchor:rear","translation":[-2.15,0.95,0.65]}],"meshes":[{"name":"showcase-cube","primitives":[{"attributes":{"POSITION":0},"indices":1,"material":0}]}],"materials":[{"name":"showcase-default","extensions":{"KHR_materials_unlit":{}},"pbrMetallicRoughness":{"baseColorFactor":[0.18,0.2,0.23,1],"metallicFactor":0,"roughnessFactor":1}}],"accessors":[{"bufferView":0,"componentType":5126,"count":8,"type":"VEC3","min":[-0.5,-0.5,-0.5],"max":[0.5,0.5,0.5]},{"bufferView":1,"componentType":5123,"count":36,"type":"SCALAR","min":[0],"max":[7]}],"bufferViews":[{"buffer":0,"byteOffset":0,"byteLength":96,"target":34962},{"buffer":0,"byteOffset":96,"byteLength":72,"target":34963}],"buffers":[{"byteLength":168,"uri":"data:application/octet-stream;base64,"}]}